# xmcd CD database file
# Copyright (C) 1995-1998 Ti Kan
#
# Track frame offsets:
#	150
#	12996
#	23012
#	35592
#	46711
#	58673
#	71936
#	86844
#	98194
#	108669
#	120316
#	133057
#	144507
#	156306
#	167305
#	185526
#	198007
#	211241
#	227501
#	240765
#	256593
#	270133
#	281971
#	294353
#	304935
#	318045
#
# Disc length: 4398 seconds
#
# Revision: 1
# Processed by: cddbd v1.4b41PL1 Copyright (c) Steve Scherf et al.
# Submitted via: CDex 1.30
#
DISCID=5c112c1a
DTITLE=John Lee Hooker - Star Profile
DYEAR=1900
DGENRE=Blues
TTITLE0=Hobo blues
TTITLE1=Dimples
TTITLE2=Crawlin' kingsnake
TTITLE3=Bottle up and go
TTITLE4=Boogie Chillun
TTITLE5=I'm so excited
TTITLE6=Moanin' blues
TTITLE7=Boom boom
TTITLE8=Big legs, tight skirt
TTITLE9=Wheel and deal
TTITLE10=Mambo chillun
TTITLE11=This is hip
TTITLE12=I love you honey
TTITLE13=No shoes
TTITLE14=House rent boogie
TTITLE15=Drug store woman
TTITLE16=Birmingham blues
TTITLE17=My first wife left me
TTITLE18=I'm going upstairs
TTITLE19=One way ticket
TTITLE20=Every night
TTITLE21=Little wheel
TTITLE22=You can lead me baby
TTITLE23=Maudie
TTITLE24=Drive me away
TTITLE25=Solid sender
EXTD=YEAR:       ID3G:   0
EXTT0=
EXTT1=
EXTT2=
EXTT3=
EXTT4=
EXTT5=
EXTT6=
EXTT7=
EXTT8=
EXTT9=
EXTT10=
EXTT11=
EXTT12=
EXTT13=
EXTT14=
EXTT15=
EXTT16=
EXTT17=
EXTT18=
EXTT19=
EXTT20=
EXTT21=
EXTT22=
EXTT23=
EXTT24=
EXTT25=
PLAYORDER=
